<?xml version="1.0" encoding="iso-8859-1"?>
<!-- Uploaded to: SVG Repo, www.svgrepo.com, Generator: SVG Repo Mixer Tools -->
<svg version="1.1" id="Layer_1" xmlns="http://www.w3.org/2000/svg" xmlns:xlink="http://www.w3.org/1999/xlink" 
	 viewBox="0 0 512 512" xml:space="preserve">
<polygon style="fill:#AB5D4A;" points="399.473,188.484 388.22,205.363 399.473,222.242 450.11,222.242 450.11,188.484 "/>
<rect x="61.89" y="188.484" style="fill:#C08577;" width="337.582" height="33.758"/>
<path style="fill:#8FE1EA;" d="M137.846,163.165l-11.253,42.198l11.253,42.198c13.983,0,25.319-11.336,25.319-25.319v-33.758
	C163.165,174.501,151.829,163.165,137.846,163.165z"/>
<path style="fill:#A3FBE5;" d="M112.527,188.484v33.758c0,13.983,11.336,25.319,25.319,25.319v-84.396
	C123.863,163.165,112.527,174.501,112.527,188.484z"/>
<path style="fill:#F5AC51;" d="M222.242,163.165l-11.253,42.198l11.253,42.198c13.983,0,25.319-11.336,25.319-25.319v-33.758
	C247.56,174.501,236.224,163.165,222.242,163.165z"/>
<path style="fill:#FFD159;" d="M196.923,188.484v33.758c0,13.983,11.336,25.319,25.319,25.319v-84.396
	C208.259,163.165,196.923,174.501,196.923,188.484z"/>
<path style="fill:#8FE1EA;" d="M272.879,163.165l-11.253,42.198l11.253,42.198c13.983,0,25.319-11.336,25.319-25.319v-33.758
	C298.198,174.501,286.862,163.165,272.879,163.165z"/>
<path style="fill:#A3FBE5;" d="M247.56,188.484v33.758c0,13.983,11.336,25.319,25.319,25.319v-84.396
	C258.896,163.165,247.56,174.501,247.56,188.484z"/>
<path style="fill:#F5AC51;" d="M323.517,163.165l-11.253,42.198l11.253,42.198c13.983,0,25.319-11.336,25.319-25.319v-33.758
	C348.835,174.501,337.499,163.165,323.517,163.165z"/>
<path style="fill:#FFD159;" d="M298.198,188.484v33.758c0,13.983,11.336,25.319,25.319,25.319v-84.396
	C309.534,163.165,298.198,174.501,298.198,188.484z"/>
<path style="fill:#8FE1EA;" d="M374.154,163.165l-11.253,42.198l11.253,42.198c13.983,0,25.319-11.336,25.319-25.319v-33.758
	C399.473,174.501,388.137,163.165,374.154,163.165z"/>
<path style="fill:#A3FBE5;" d="M348.835,188.484v33.758c0,13.983,11.336,25.319,25.319,25.319v-84.396
	C360.171,163.165,348.835,174.501,348.835,188.484z"/>
<polygon style="fill:#AB5D4A;" points="399.473,317.89 388.22,334.769 399.473,351.648 450.11,351.648 450.11,317.89 "/>
<rect x="61.89" y="317.89" style="fill:#C08577;" width="337.582" height="33.758"/>
<polygon style="fill:#AB5D4A;" points="399.473,59.077 388.22,75.956 399.473,92.835 450.11,92.835 450.11,59.077 "/>
<g>
	<rect x="61.89" y="59.077" style="fill:#C08577;" width="337.582" height="33.758"/>
	<path style="fill:#C08577;" d="M61.89,0c-9.322,0-16.879,7.557-16.879,16.879s0,461.363,0,461.363h33.758c0,0,0-452.041,0-461.363
		S71.212,0,61.89,0z"/>
</g>
<g>
	<path style="fill:#95341D;" d="M450.11,0c-9.322,0-16.879,7.557-16.879,16.879s0,461.363,0,461.363h33.758c0,0,0-452.041,0-461.363
		S459.432,0,450.11,0z"/>
	<path style="fill:#95341D;" d="M478.242,444.484h-33.758L478.242,512H512v-33.758C512,459.597,496.886,444.484,478.242,444.484z"/>
</g>
<path style="fill:#AB5D4A;" d="M444.484,444.484H33.758C15.114,444.484,0,459.597,0,478.242V512h478.242v-33.758
	C478.242,459.597,463.128,444.484,444.484,444.484z"/>
<path style="fill:#F5AC51;" d="M137.846,292.571l-11.253,42.198l11.253,42.198c13.983,0,25.319-11.336,25.319-25.319V317.89
	C163.165,303.907,151.829,292.571,137.846,292.571z"/>
<path style="fill:#FFD159;" d="M112.527,317.89v33.758c0,13.983,11.336,25.319,25.319,25.319v-84.396
	C123.863,292.571,112.527,303.907,112.527,317.89z"/>
<path style="fill:#8FE1EA;" d="M188.484,292.571l-11.253,42.198l11.253,42.198c13.983,0,25.319-11.336,25.319-25.319V317.89
	C213.802,303.907,202.466,292.571,188.484,292.571z"/>
<path style="fill:#A3FBE5;" d="M163.165,317.89v33.758c0,13.983,11.336,25.319,25.319,25.319v-84.396
	C174.501,292.571,163.165,303.907,163.165,317.89z"/>
<path style="fill:#F5AC51;" d="M272.879,292.571l-11.253,42.198l11.253,42.198c13.983,0,25.319-11.336,25.319-25.319V317.89
	C298.198,303.907,286.862,292.571,272.879,292.571z"/>
<path style="fill:#FFD159;" d="M247.56,317.89v33.758c0,13.983,11.336,25.319,25.319,25.319v-84.396
	C258.896,292.571,247.56,303.907,247.56,317.89z"/>
<path style="fill:#8FE1EA;" d="M323.517,292.571l-11.253,42.198l11.253,42.198c13.983,0,25.319-11.336,25.319-25.319V317.89
	C348.835,303.907,337.499,292.571,323.517,292.571z"/>
<path style="fill:#A3FBE5;" d="M298.198,317.89v33.758c0,13.983,11.336,25.319,25.319,25.319v-84.396
	C309.534,292.571,298.198,303.907,298.198,317.89z"/>
<path style="fill:#F5AC51;" d="M374.154,292.571l-11.253,42.198l11.253,42.198c13.983,0,25.319-11.336,25.319-25.319V317.89
	C399.473,303.907,388.137,292.571,374.154,292.571z"/>
<path style="fill:#FFD159;" d="M348.835,317.89v33.758c0,13.983,11.336,25.319,25.319,25.319v-84.396
	C360.171,292.571,348.835,303.907,348.835,317.89z"/>
<path style="fill:#F5AC51;" d="M137.846,33.758l-11.253,42.198l11.253,42.198c13.983,0,25.319-11.336,25.319-25.319V59.077
	C163.165,45.094,151.829,33.758,137.846,33.758z"/>
<path style="fill:#FFD159;" d="M112.527,59.077v33.758c0,13.983,11.336,25.319,25.319,25.319V33.758
	C123.863,33.758,112.527,45.094,112.527,59.077z"/>
<path style="fill:#8FE1EA;" d="M188.484,33.758l-11.253,42.198l11.253,42.198c13.983,0,25.319-11.336,25.319-25.319V59.077
	C213.802,45.094,202.466,33.758,188.484,33.758z"/>
<path style="fill:#A3FBE5;" d="M163.165,59.077v33.758c0,13.983,11.336,25.319,25.319,25.319V33.758
	C174.501,33.758,163.165,45.094,163.165,59.077z"/>
<path style="fill:#F5AC51;" d="M239.121,33.758l-11.253,42.198l11.253,42.198c13.983,0,25.319-11.336,25.319-25.319V59.077
	C264.44,45.094,253.104,33.758,239.121,33.758z"/>
<path style="fill:#FFD159;" d="M213.802,59.077v33.758c0,13.983,11.336,25.319,25.319,25.319V33.758
	C225.138,33.758,213.802,45.094,213.802,59.077z"/>
<path style="fill:#8FE1EA;" d="M323.517,33.758l-11.253,42.198l11.253,42.198c13.983,0,25.319-11.336,25.319-25.319V59.077
	C348.835,45.094,337.499,33.758,323.517,33.758z"/>
<path style="fill:#A3FBE5;" d="M298.198,59.077v33.758c0,13.983,11.336,25.319,25.319,25.319V33.758
	C309.534,33.758,298.198,45.094,298.198,59.077z"/>
<path style="fill:#F5AC51;" d="M374.154,33.758l-11.253,42.198l11.253,42.198c13.983,0,25.319-11.336,25.319-25.319V59.077
	C399.473,45.094,388.137,33.758,374.154,33.758z"/>
<path style="fill:#FFD159;" d="M348.835,59.077v33.758c0,13.983,11.336,25.319,25.319,25.319V33.758
	C360.171,33.758,348.835,45.094,348.835,59.077z"/>
</svg>